#!OML:ASF I:\Actors\actors\Patient Classification 2\Patient 1\Session 1\actor1.ASF
:FULLY-SPECIFIED
:DEGREES
421
root 0.673522 18.5943 4.14858 14.489 -21.8169 -5.68808
lowerback 27.1754 0.157179 -0.628787
upperback 6.62013 -0.0997164 0.02846
thorax -7.65637 -0.0960806 0.433981
lowerneck -11.3128 5.71464 9.63509
upperneck 29.5861 7.78735 -7.23545
head 12.31 3.57887 -3.32385
rclavicle -3.49861e-014 1.27222e-014
rhumerus -15.0711 41.6027 -92.2693
rradius 114.028
rwrist -37.9756
rhand -31.2263 -36.1812
rfingers 7.12502
rthumb -4.50163 -66.1133
lclavicle -3.49861e-014 1.27222e-014
lhumerus -3.89988 -31.8437 61.4564
lradius 77.5955
lwrist 17.6479
lhand -18.1439 -47.9707
lfingers 7.12502
lthumb 8.13144 -18.1471
rfemur -15.432 11.2827 12.0054
rtibia 2.51666
rfoot -5.27562 -9.5453
rtoes -13.876
lfemur -25.9456 11.9977 -15.7788
ltibia 38.3331
lfoot -25.6061 12.1685
ltoes -52.4784
422
root 0.678658 18.5954 4.12598 14.4683 -21.3309 -5.56951
lowerback 27.3145 0.10444 -0.728649
upperback 6.70085 -0.192262 0.0446287
thorax -7.63325 -0.138548 0.539933
lowerneck -11.2563 5.7258 9.82562
upperneck 29.3354 7.81235 -7.43017
head 12.2182 3.59118 -3.4231
rclavicle -4.49253e-014 2.38542e-014
rhumerus -13.9284 40.6126 -91.4458
rradius 113.414
rwrist -39.1738
rhand -31.465 -38.9107
rfingers 7.12502
rthumb -4.73216 -68.8378
lclavicle -4.49253e-014 2.38542e-014
lhumerus -2.27529 -30.9004 61.8094
lradius 75.6414
lwrist 16.6858
lhand -18.4921 -48.8497
lfingers 7.12502
lthumb 7.79542 -19.0134
rfemur -16.1083 10.7928 12.0479
rtibia 3.91948
rfoot -5.84222 -9.2629
rtoes -14.1165
lfemur -26.1711 11.5878 -15.7996
ltibia 38.3876
lfoot -25.431 12.0071
ltoes -52.4855
423
root 0.685037 18.5946 4.10068 14.4525 -20.7244 -5.52341
lowerback 27.4391 -0.052771 -0.825524
upperback 6.76528 -0.418959 0.0278361
thorax -7.61873 -0.244153 0.651999
lowerneck -11.1948 5.79909 10.1528
upperneck 29.1825 7.89783 -7.6298
head 12.1798 3.64286 -3.54091
rclavicle -1.11319e-014 6.52014e-014
rhumerus -13.3095 39.723 -91.1666
rradius 112.44
rwrist -38.3281
rhand -31.4887 -39.4224
rfingers 7.12502
rthumb -4.75506 -69.3491
lclavicle -1.11319e-014 6.52014e-014
lhumerus -0.570919 -29.6693 62.2185
lradius 73.575
lwrist 15.9493
lhand -19.0243 -49.5832
lfingers 7.12502
lthumb 7.2817 -19.7285
rfemur -16.6346 10.2076 12.1935
rtibia 5.08634
rfoot -6.31815 -9.03324
rtoes -14.0613
lfemur -26.4105 11.0871 -15.718
ltibia 38.4752
lfoot -25.271 11.8446
ltoes -52.4087
424
root 0.695683 18.5907 4.07756 14.4717 -19.8783 -5.54609
lowerback 27.4485 -0.37511 -0.825068
upperback 6.89959 -0.823091 0.0539485
thorax -7.4657 -0.436076 0.812347
lowerneck -11.337 5.95543 10.3731
upperneck 29.1362 8.08716 -7.74251
head 12.23 3.73319 -3.58931
rclavicle -1.11319e-014 -7.95139e-015
rhumerus -12.3847 39.0313 -90.5431
rradius 111.008
rwrist -36.1984
rhand -31.3285 -37.4328
rfingers 7.12502
rthumb -4.60038 -67.3629
lclavicle -1.11319e-014 -7.95139e-015
lhumerus 1.14872 -27.9312 62.8988
lradius 71.426
lwrist 15.2908
lhand -19.7169 -50.1229
lfingers 7.12502
lthumb 6.61316 -20.2461
rfemur -17.0667 9.40224 12.4491
rtibia 6.13433
rfoot -6.70396 -8.79852
rtoes -14.3842
lfemur -26.7326 10.4002 -15.5361
ltibia 38.6182
lfoot -25.1716 11.6658
ltoes -52.2753
425
root 0.711618 18.5832 4.05703 14.5251 -18.7654 -5.58544
lowerback 27.3719 -0.857969 -0.625163
upperback 7.10974 -1.37342 0.105364
thorax -7.18566 -0.701047 0.929518
lowerneck -11.7672 6.13355 10.352
upperneck 29.0852 8.29778 -7.71321
head 12.3216 3.81688 -3.53113
rclavicle 3.97569e-014 -2.8625e-014
rhumerus -11.1133 37.7548 -89.5379
rradius 110.54
rwrist -37.1549
rhand -30.689 -40.8879
rfingers 7.12502
rthumb -3.98278 -70.8304
lclavicle 3.97569e-014 -2.8625e-014
lhumerus 2.91905 -25.9544 63.7532
lradius 69.1367
lwrist 15.1755
lhand -20.4294 -50.7062
lfingers 7.12502
lthumb 5.92529 -20.8091
rfemur -17.3543 8.33429 12.767
rtibia 6.94548
rfoot -6.97148 -8.56681
rtoes -15.0509
lfemur -27.1832 9.59983 -15.3286
ltibia 38.8092
lfoot -25.0256 11.4059
ltoes -52.1777
426
root 0.726273 18.5732 4.03637 14.5467 -17.6677 -5.67639
lowerback 27.3337 -1.33982 -0.372903
upperback 7.28253 -1.91108 0.131712
thorax -6.97077 -0.959787 0.983184
lowerneck -12.2243 6.30785 10.2077
upperneck 29.1163 8.49727 -7.55638
head 12.4375 3.89601 -3.40459
rclavicle 3.49861e-014 -1.51076e-014
rhumerus -9.45782 36.6992 -88.198
rradius 109.661
rwrist -38.219
rhand -30.8549 -42.266
rfingers 7.12502
rthumb -4.14302 -72.2055
lclavicle 3.49861e-014 -1.51076e-014
lhumerus 4.44161 -24.0561 64.6936
lradius 66.8252
lwrist 15.7482
lhand -21.122 -51.5011
lfingers 7.12502
lthumb 5.25657 -21.5863
rfemur -17.4831 7.29937 13.1301
rtibia 7.51564
rfoot -7.16801 -8.3436
rtoes -15.2378
lfemur -27.6006 8.94485 -15.0833
ltibia 39.0241
lfoot -24.8245 11.0685
ltoes -52.1022
427
root 0.735632 18.5624 4.01917 14.5071 -16.808 -5.86784
lowerback 27.332 -1.71013 -0.189598
upperback 7.3463 -2.33084 0.103764
thorax -6.89976 -1.16011 0.980553
lowerneck -12.3331 6.44395 10.1745
upperneck 29.2572 8.63066 -7.34201
head 12.5207 3.97123 -3.29513
rclavicle -3.57812e-014 7.15625e-015
rhumerus -8.93913 36.032 -87.7893
rradius 108.923
rwrist -38.2734
rhand -31.2261 -41.6157
rfingers 7.12502
rthumb -4.5015 -71.5479
lclavicle -3.57812e-014 7.15625e-015
lhumerus 5.23886 -22.3011 65.801
lradius 64.8152
lwrist 16.4701
lhand -21.8273 -52.9633
lfingers 7.12502
lthumb 4.5755 -23.0327
rfemur -17.4512 6.52787 13.5406
rtibia 7.86656
rfoot -7.34176 -8.16286
rtoes -14.8231
lfemur -27.8465 8.49174 -14.7557
ltibia 39.2376
lfoot -24.7379 10.7952
ltoes -52.1191
428
root 0.742736 18.5532 4.01118 14.426 -16.1455 -6.10003
lowerback 27.2729 -1.97406 -0.0269265
upperback 7.33619 -2.62522 0.0358288
thorax -6.88823 -1.29983 0.905093
lowerneck -12.2302 6.51726 10.2197
upperneck 29.5345 8.66113 -7.07368
head 12.6056 4.01988 -3.20218
rclavicle 9.54166e-015 -8.74653e-015
rhumerus -9.16424 35.8002 -87.919
rradius 108.275
rwrist -37.8034
rhand -31.5945 -38.6957
rfingers 7.12502
rthumb -4.85715 -68.6201
lclavicle 9.54166e-015 -8.74653e-015
lhumerus 5.19176 -20.245 67.0328
lradius 63.8059
lwrist 14.6408
lhand -22.0936 -54.0645
lfingers 7.12502
lthumb 4.31836 -24.1286
rfemur -17.2394 5.96013 13.9406
rtibia 7.94607
rfoot -7.4644 -8.06286
rtoes -14.5073
lfemur -27.9549 8.19703 -14.4198
ltibia 39.4292
lfoot -24.6985 10.6136
ltoes -52.2737
429
root 0.748111 18.5468 4.01107 14.3303 -15.6849 -6.26619
lowerback 27.074 -2.09526 0.00723574
upperback 7.31213 -2.77282 -0.0190985
thorax -6.82048 -1.36979 0.865479
lowerneck -12.0946 6.53251 10.1924
upperneck 29.8539 8.63781 -6.82499
head 12.6921 4.03599 -3.11451
rclavicle 8.74653e-015 -7.15625e-015
rhumerus -9.22383 35.4173 -87.514
rradius 108.611
rwrist -39.361
rhand -31.4642 -41.519
rfingers 7.12502
rthumb -4.73139 -71.4461
lclavicle 8.74653e-015 -7.15625e-015
lhumerus 4.26105 -18.7072 68.0496
lradius 64.2951
lwrist 13.1555
lhand -22.5078 -55.4768
lfingers 7.12502
lthumb 3.91842 -25.5331
rfemur -16.8993 5.56711 14.2184
rtibia 7.73742
rfoot -7.4582 -8.05307
rtoes -14.7852
lfemur -27.9862 8.0608 -14.1914
ltibia 39.5843
lfoot -24.6318 10.4588
ltoes -52.4093
430
root 0.750473 18.5445 4.01702 14.1796 -15.5236 -6.40222
lowerback 26.794 -2.03796 -0.0692941
upperback 7.29984 -2.72658 -0.0959585
thorax -6.69803 -1.348 0.800028
lowerneck -11.9181 6.48857 10.223
upperneck 30.1975 8.5522 -6.67868
head 12.7822 4.02072 -3.08772
rclavicle 7.23576e-014 -4.21423e-014
rhumerus -9.45934 35.6529 -87.0004
rradius 108.869
rwrist -40.8268
rhand -31.5102 -40.2251
rfingers 7.12502
rthumb -4.77578 -70.1513
lclavicle 7.23576e-014 -4.21423e-014
lhumerus 2.55657 -17.7706 68.7353
lradius 66.1224
lwrist 13.8471
lhand -21.851 -55.6127
lfingers 7.12502
lthumb 4.55265 -25.6816
rfemur -16.4256 5.4562 14.39
rtibia 7.2988
rfoot -7.31939 -8.12189
rtoes -15.1528
lfemur -27.8474 8.01981 -14.0122
ltibia 39.6832
lfoot -24.6414 10.3533
ltoes -52.3368
431
root 0.751546 18.5456 4.02947 13.9705 -15.5191 -6.53481
lowerback 26.4968 -1.90062 -0.0882566
upperback 7.27146 -2.56806 -0.222539
thorax -6.59064 -1.27285 0.612565
lowerneck -11.6497 6.38144 10.3925
upperneck 30.5662 8.37187 -6.60024
head 12.8653 3.97419 -3.1289
rclavicle 1.66979e-014 2.54444e-014
rhumerus -10.1409 36.8108 -86.9568
rradius 108.804
rwrist -41.1534
rhand -32.4029 -36.1716
rfingers 7.12502
rthumb -5.63774 -66.0766
lclavicle 1.66979e-014 2.54444e-014
lhumerus 0.0986063 -17.7396 69.0243
lradius 68.7965
lwrist 15.9139
lhand -21.6986 -55.6517
lfingers 7.12502
lthumb 4.69976 -25.7238
rfemur -15.7812 5.50017 14.5187
rtibia 6.63057
rfoot -7.0789 -8.25559
rtoes -15.2471
lfemur -27.5521 7.95661 -13.8366
ltibia 39.7111
lfoot -24.6639 10.3604
ltoes -52.3202
432
root 0.754068 18.5481 4.04754 13.7575 -15.4983 -6.61258
lowerback 26.329 -1.73309 -0.135865
upperback 7.12294 -2.37245 -0.297628
thorax -6.67583 -1.17729 0.494576
lowerneck -11.2823 6.20207 10.5179
upperneck 30.9269 8.09565 -6.48303
head 12.9093 3.88865 -3.16464
rclavicle 6.83819e-014 -2.78299e-014
rhumerus -11.1367 38.2533 -86.8912
rradius 109.401
rwrist -42.4716
rhand -32.4435 -35.2651
rfingers 7.12502
rthumb -5.6769 -65.1691
lclavicle 6.83819e-014 -2.78299e-014
lhumerus -3.083 -18.5442 68.9742
lradius 71.8441
lwrist 18.2951
lhand -22.0628 -55.4903
lfingers 7.12502
lthumb 4.34812 -25.5549
rfemur -14.9537 5.51038 14.5868
rtibia 5.60948
rfoot -6.73496 -8.47916
rtoes -14.9773
lfemur -27.2116 7.83228 -13.7265
ltibia 39.6628
lfoot -24.6408 10.4657
ltoes -52.5377
